<svg width="680" height="900" viewBox="0 0 680 900" fill="none" xmlns="http://www.w3.org/2000/svg">
<g filter="url(#filter0_d)">
<path d="M0 900H674.078C674.078 900 678.27 892.617 663.688 877.073C649.105 861.528 656.861 862.028 652.573 852.591C648.135 842.821 639.14 844.819 637.553 819.56C635.967 794.3 628.63 799.961 623.747 789.249C613.9 767.645 613.286 724.352 591.275 718.141C569.264 711.929 574.936 682.454 566.344 663.731C560.495 650.986 563.673 631.477 548.489 624.87C533.305 618.264 531.392 587.737 522.697 568.912C513.56 549.126 520.128 523.834 495.171 509.456C470.214 495.078 486.46 475.259 464.449 443.502C442.438 411.744 464.449 422.409 443.07 397.927C421.691 373.446 443.07 340.803 408.421 324.87C373.772 308.938 391.288 289.225 383.636 273.575C375.723 257.389 360.683 254.534 362.196 230.44C363.71 206.347 337.796 184.187 334.707 182.254C314.216 169.43 311.923 153.886 311.923 134.067C311.923 114.249 285.916 108.42 281.422 69.5596C276.928 30.6995 248.532 0 248.532 0H0V900Z" fill="#9462FF"/>
<path d="M0 900H674.078C674.078 900 678.27 892.617 663.688 877.073C649.105 861.528 656.861 862.028 652.573 852.591C648.135 842.821 639.14 844.819 637.553 819.56C635.967 794.3 628.63 799.961 623.747 789.249C613.9 767.645 613.286 724.352 591.275 718.141C569.264 711.929 574.936 682.454 566.344 663.731C560.495 650.986 563.673 631.477 548.489 624.87C533.305 618.264 531.392 587.737 522.697 568.912C513.56 549.126 520.128 523.834 495.171 509.456C470.214 495.078 486.46 475.259 464.449 443.502C442.438 411.744 464.449 422.409 443.07 397.927C421.691 373.446 443.07 340.803 408.421 324.87C373.772 308.938 391.288 289.225 383.636 273.575C375.723 257.389 360.683 254.534 362.196 230.44C363.71 206.347 337.796 184.187 334.707 182.254C314.216 169.43 311.923 153.886 311.923 134.067C311.923 114.249 285.916 108.42 281.422 69.5596C276.928 30.6995 248.532 0 248.532 0H0V900Z" stroke="#9462FF"/>
</g>
<defs>
<filter id="filter0_d" x="-4.5" y="-0.5" width="683.637" height="909" filterUnits="userSpaceOnUse" color-interpolation-filters="sRGB">
<feFlood flood-opacity="0" result="BackgroundImageFix"/>
<feColorMatrix in="SourceAlpha" type="matrix" values="0 0 0 0 0 0 0 0 0 0 0 0 0 0 0 0 0 0 127 0"/>
<feOffset dy="4"/>
<feGaussianBlur stdDeviation="2"/>
<feColorMatrix type="matrix" values="0 0 0 0 0 0 0 0 0 0 0 0 0 0 0 0 0 0 0.25 0"/>
<feBlend mode="normal" in2="BackgroundImageFix" result="effect1_dropShadow"/>
<feBlend mode="normal" in="SourceGraphic" in2="effect1_dropShadow" result="shape"/>
</filter>
</defs>
</svg>
