<svg width="893" height="900" viewBox="0 0 893 900" fill="none" xmlns="http://www.w3.org/2000/svg">
<g filter="url(#filter0_d)">
<path d="M0 900H887.078C887.078 900 891.27 892.617 876.688 877.073C862.105 861.529 869.861 862.028 865.573 852.591C861.135 842.821 852.14 844.819 850.553 819.56C848.967 794.301 841.63 799.961 836.747 789.249C826.9 767.645 826.286 724.352 804.275 718.141C782.264 711.929 787.936 682.454 779.344 663.731C773.495 650.986 776.674 631.477 761.489 624.87C746.305 618.264 744.392 587.737 735.697 568.912C726.56 549.126 733.128 523.834 708.171 509.456C683.214 495.078 699.46 475.259 677.449 443.502C655.438 411.744 677.449 422.409 656.07 397.927C634.691 373.446 656.07 340.803 621.421 324.87C586.772 308.938 604.288 289.225 596.636 273.575C588.723 257.389 573.683 254.534 575.196 230.44C576.71 206.347 550.796 184.187 547.707 182.254C527.216 169.43 524.923 153.886 524.923 134.067C524.923 114.249 498.916 108.42 494.422 69.5596C489.928 30.6995 461.532 0 461.532 0H0V900Z" fill="#9462FF"/>
<path d="M0 900H887.078C887.078 900 891.27 892.617 876.688 877.073C862.105 861.529 869.861 862.028 865.573 852.591C861.135 842.821 852.14 844.819 850.553 819.56C848.967 794.301 841.63 799.961 836.747 789.249C826.9 767.645 826.286 724.352 804.275 718.141C782.264 711.929 787.936 682.454 779.344 663.731C773.495 650.986 776.674 631.477 761.489 624.87C746.305 618.264 744.392 587.737 735.697 568.912C726.56 549.126 733.128 523.834 708.171 509.456C683.214 495.078 699.46 475.259 677.449 443.502C655.438 411.744 677.449 422.409 656.07 397.927C634.691 373.446 656.07 340.803 621.421 324.87C586.772 308.938 604.288 289.225 596.636 273.575C588.723 257.389 573.683 254.534 575.196 230.44C576.71 206.347 550.796 184.187 547.707 182.254C527.216 169.43 524.923 153.886 524.923 134.067C524.923 114.249 498.916 108.42 494.422 69.5596C489.928 30.6995 461.532 0 461.532 0H0V900Z" stroke="#9462FF"/>
</g>
<defs>
<filter id="filter0_d" x="-4.5" y="-0.5" width="896.637" height="909" filterUnits="userSpaceOnUse" color-interpolation-filters="sRGB">
<feFlood flood-opacity="0" result="BackgroundImageFix"/>
<feColorMatrix in="SourceAlpha" type="matrix" values="0 0 0 0 0 0 0 0 0 0 0 0 0 0 0 0 0 0 127 0"/>
<feOffset dy="4"/>
<feGaussianBlur stdDeviation="2"/>
<feColorMatrix type="matrix" values="0 0 0 0 0 0 0 0 0 0 0 0 0 0 0 0 0 0 0.25 0"/>
<feBlend mode="normal" in2="BackgroundImageFix" result="effect1_dropShadow"/>
<feBlend mode="normal" in="SourceGraphic" in2="effect1_dropShadow" result="shape"/>
</filter>
</defs>
</svg>
