<svg width="32" height="32" viewBox="0 0 32 32" fill="none" xmlns="http://www.w3.org/2000/svg">
<path d="M21 23.5V17H11.9375C11.6723 17 11.4179 16.8946 11.2304 16.7071C11.0429 16.5196 10.9375 16.2652 10.9375 16C10.9375 15.7348 11.0429 15.4804 11.2304 15.2929C11.4179 15.1054 11.6723 15 11.9375 15H21V8.5C20.999 7.57205 20.6299 6.68238 19.9738 6.02622C19.3176 5.37006 18.428 5.00099 17.5 5H5.5C4.57205 5.00099 3.68238 5.37006 3.02622 6.02622C2.37006 6.68238 2.00099 7.57205 2 8.5V23.5C2.00099 24.428 2.37006 25.3176 3.02622 25.9738C3.68238 26.6299 4.57205 26.999 5.5 27H17.5C18.428 26.999 19.3176 26.6299 19.9738 25.9738C20.6299 25.3176 20.999 24.428 21 23.5Z" fill="white"/>
<path d="M26.5856 17L23.2931 20.2931C23.1135 20.4821 23.0148 20.7339 23.0182 20.9946C23.0215 21.2554 23.1266 21.5045 23.311 21.6889C23.4954 21.8733 23.7445 21.9784 24.0053 21.9818C24.2661 21.9851 24.5178 21.8864 24.7069 21.7068L29.7069 16.7068C29.8943 16.5193 29.9995 16.2651 29.9995 16C29.9995 15.7349 29.8943 15.4806 29.7069 15.2931L24.7069 10.2931C24.5178 10.1135 24.2661 10.0148 24.0053 10.0181C23.7445 10.0215 23.4954 10.1266 23.311 10.311C23.1266 10.4954 23.0215 10.7445 23.0182 11.0053C23.0148 11.266 23.1135 11.5178 23.2931 11.7068L26.5856 15H21V17H26.5856Z" fill="white"/>
</svg>
