<svg width="38" height="38" viewBox="0 0 38 38" fill="none" xmlns="http://www.w3.org/2000/svg">
<path d="M19.9721 3.49913C19.6942 3.28291 19.3521 3.16553 19 3.16553C18.6478 3.16553 18.3057 3.28291 18.0278 3.49913L5.00013 13.6325C4.4288 14.0769 3.9666 14.646 3.64883 15.2964C3.33106 15.9467 3.16612 16.6611 3.16663 17.385V31.6666C3.16663 32.5065 3.50026 33.3119 4.09412 33.9058C4.68799 34.4997 5.49344 34.8333 6.33329 34.8333H12.6666C13.5065 34.8333 14.3119 34.4997 14.9058 33.9058C15.4997 33.3119 15.8333 32.5065 15.8333 31.6666V22.1666H22.1666V31.6666C22.1666 32.5065 22.5003 33.3119 23.0941 33.9058C23.688 34.4997 24.4934 34.8333 25.3333 34.8333H31.6666C32.5065 34.8333 33.3119 34.4997 33.9058 33.9058C34.4997 33.3119 34.8333 32.5065 34.8333 31.6666V17.385C34.8334 16.6609 34.668 15.9463 34.3497 15.2959C34.0313 14.6456 33.5685 14.0766 32.9966 13.6325L19.9721 3.49913Z" fill="white"/>
</svg>
