<svg width="38" height="38" viewBox="0 0 38 38" fill="none" xmlns="http://www.w3.org/2000/svg">
<path d="M28.109 22.1667C28.5768 22.1667 29.0401 22.2588 29.4723 22.4379C29.9045 22.6169 30.2972 22.8793 30.628 23.2101C30.9588 23.5409 31.2213 23.9337 31.4003 24.3659C31.5793 24.7981 31.6715 25.2614 31.6715 25.7292V27.1621C31.6717 28.018 31.4869 28.8638 31.1297 29.6416C30.7725 30.4193 30.2514 31.1107 29.602 31.6683C27.1225 33.7963 23.5759 34.8334 19.0001 34.8334C14.4242 34.8334 10.8807 33.7947 8.40597 31.6667C7.75753 31.1095 7.23708 30.4188 6.88019 29.6419C6.5233 28.865 6.3384 28.0202 6.33813 27.1653V25.7276C6.33855 24.783 6.71407 23.8773 7.38213 23.2096C8.05018 22.5418 8.95608 22.1667 9.90063 22.1667H28.109ZM18.8386 3.17935L19.0001 3.16669C19.287 3.1667 19.5643 3.27062 19.7805 3.45923C19.9968 3.64785 20.1374 3.90839 20.1765 4.19269L20.1876 4.35419V5.54169H25.7292C26.6741 5.54169 27.5802 5.91702 28.2483 6.58512C28.9164 7.25322 29.2917 8.15935 29.2917 9.10419V16.2371C29.2917 17.1819 28.9164 18.0881 28.2483 18.7562C27.5802 19.4243 26.6741 19.7996 25.7292 19.7996H12.2709C11.3261 19.7996 10.4199 19.4243 9.75182 18.7562C9.08372 18.0881 8.70838 17.1819 8.70838 16.2371V9.10419C8.70838 8.15935 9.08372 7.25322 9.75182 6.58512C10.4199 5.91702 11.3261 5.54169 12.2709 5.54169H17.8126V4.35577C17.8126 4.06881 17.9165 3.79156 18.1051 3.5753C18.2937 3.35903 18.5543 3.21838 18.8386 3.17935L19.0001 3.16669L18.8386 3.17777V3.17935ZM15.4376 10.2917C14.9126 10.2917 14.4092 10.5002 14.0381 10.8714C13.6669 11.2425 13.4584 11.7459 13.4584 12.2709C13.4584 12.7958 13.6669 13.2992 14.0381 13.6703C14.4092 14.0415 14.9126 14.25 15.4376 14.25C15.9625 14.25 16.4659 14.0415 16.837 13.6703C17.2082 13.2992 17.4167 12.7958 17.4167 12.2709C17.4167 11.7459 17.2082 11.2425 16.837 10.8714C16.4659 10.5002 15.9625 10.2917 15.4376 10.2917ZM22.5515 10.2917C22.287 10.2842 22.0236 10.3298 21.7771 10.4259C21.5305 10.522 21.3057 10.6665 21.1159 10.8509C20.9262 11.0354 20.7754 11.256 20.6724 11.4998C20.5694 11.7435 20.5163 12.0054 20.5163 12.2701C20.5163 12.5347 20.5694 12.7966 20.6724 13.0404C20.7754 13.2841 20.9262 13.5047 21.1159 13.6892C21.3057 13.8736 21.5305 14.0182 21.7771 14.1142C22.0236 14.2103 22.287 14.2559 22.5515 14.2484C23.0665 14.2339 23.5555 14.019 23.9146 13.6496C24.2738 13.2802 24.4747 12.7853 24.4747 12.2701C24.4747 11.7548 24.2738 11.2599 23.9146 10.8905C23.5555 10.5211 23.0665 10.3063 22.5515 10.2917Z" fill="white"/>
</svg>
