<svg width="38" height="38" viewBox="0 0 38 38" fill="none" xmlns="http://www.w3.org/2000/svg">
<path d="M21.8817 34.8334H16.1184C15.7572 34.8334 15.407 34.71 15.1256 34.4837C14.8442 34.2573 14.6487 33.9416 14.5714 33.5889L13.927 30.6059C13.0674 30.2292 12.2522 29.7582 11.4966 29.2014L8.58802 30.1277C8.24374 30.2375 7.87227 30.2262 7.53529 30.0957C7.19831 29.9653 6.9161 29.7234 6.73552 29.4104L3.84752 24.4214C3.66883 24.1081 3.60176 23.7434 3.65727 23.387C3.71278 23.0307 3.88759 22.7037 4.1531 22.4596L6.40935 20.4013C6.30675 19.4689 6.30675 18.528 6.40935 17.5956L4.1531 15.542C3.88722 15.2978 3.71217 14.9706 3.65665 14.6138C3.60113 14.2571 3.66843 13.8921 3.84752 13.5787L6.72919 8.58644C6.90977 8.27344 7.19198 8.03162 7.52896 7.90115C7.86594 7.77068 8.23741 7.7594 8.58169 7.86919L11.4903 8.79544C11.8766 8.51044 12.2788 8.24444 12.6936 8.00377C13.0942 7.77894 13.5059 7.57469 13.927 7.3926L14.573 4.41277C14.6499 4.06 14.8451 3.74411 15.1262 3.51747C15.4072 3.29084 15.7573 3.16707 16.1184 3.16669H21.8817C22.2427 3.16707 22.5928 3.29084 22.8739 3.51747C23.155 3.74411 23.3501 4.06 23.427 4.41277L24.0794 7.39419C24.5227 7.59052 24.9565 7.8106 25.3761 8.05602C25.7672 8.28244 26.1456 8.53102 26.5098 8.7986L29.4199 7.87235C29.764 7.76297 30.1351 7.77446 30.4718 7.90491C30.8084 8.03536 31.0903 8.27694 31.2709 8.5896L34.1525 13.5819C34.5198 14.2263 34.3932 15.0417 33.8469 15.5436L31.5907 17.6019C31.6933 18.5343 31.6933 19.4752 31.5907 20.4076L33.8469 22.4659C34.3932 22.9694 34.5198 23.7833 34.1525 24.4277L31.2709 29.4199C31.0903 29.7329 30.8081 29.9748 30.4711 30.1052C30.1341 30.2357 29.7626 30.247 29.4184 30.1372L26.5098 29.2109C25.7547 29.7672 24.9401 30.2378 24.0809 30.6138L23.427 33.5889C23.3498 33.9413 23.1545 34.2569 22.8735 34.4832C22.5924 34.7095 22.2425 34.8331 21.8817 34.8334ZM18.9937 12.6667C17.314 12.6667 15.7031 13.3339 14.5153 14.5217C13.3276 15.7094 12.6604 17.3203 12.6604 19C12.6604 20.6797 13.3276 22.2906 14.5153 23.4784C15.7031 24.6661 17.314 25.3334 18.9937 25.3334C20.6734 25.3334 22.2843 24.6661 23.472 23.4784C24.6598 22.2906 25.327 20.6797 25.327 19C25.327 17.3203 24.6598 15.7094 23.472 14.5217C22.2843 13.3339 20.6734 12.6667 18.9937 12.6667Z" fill="white"/>
</svg>
