<svg width="38" height="38" viewBox="0 0 38 38" fill="none" xmlns="http://www.w3.org/2000/svg">
<path d="M4.75 33.25H38V38H0V0H4.75V33.25ZM10.6875 30.875C10.206 30.876 9.72922 30.7793 9.28609 30.5908C8.84296 30.4024 8.44263 30.126 8.10931 29.7785C7.77598 29.4309 7.51658 29.0194 7.34676 28.5688C7.17694 28.1182 7.10024 27.6379 7.12129 27.1568C7.14234 26.6757 7.2607 26.2039 7.46923 25.7698C7.67775 25.3358 7.97211 24.9485 8.33451 24.6314C8.69692 24.3143 9.11985 24.074 9.57775 23.9249C10.0356 23.7759 10.519 23.7212 10.9986 23.7642L14.8271 17.3826C14.4771 16.845 14.2787 16.2228 14.2529 15.5818C14.2271 14.9408 14.3749 14.3047 14.6807 13.7407C14.9864 13.1767 15.4388 12.7058 15.9901 12.3776C16.5413 12.0494 17.171 11.8762 17.8125 11.8762C18.454 11.8762 19.0837 12.0494 19.6349 12.3776C20.1862 12.7058 20.6386 13.1767 20.9443 13.7407C21.2501 14.3047 21.3979 14.9408 21.3721 15.5818C21.3463 16.2228 21.1479 16.845 20.7979 17.3826L24.6264 23.7642C24.808 23.7479 24.9907 23.7463 25.1726 23.7595L31.4949 12.6968C31.0405 12.0312 30.8253 11.2314 30.8841 10.4277C30.943 9.62409 31.2727 8.86415 31.8192 8.272C32.3657 7.67984 33.0968 7.29045 33.8931 7.1674C34.6895 7.04435 35.504 7.19491 36.2037 7.5945C36.9035 7.99409 37.4471 8.6191 37.7458 9.36749C38.0445 10.1159 38.0807 10.9434 37.8484 11.715C37.6161 12.4866 37.1291 13.1567 36.4669 13.6158C35.8047 14.0749 35.0064 14.296 34.2024 14.2429L27.8801 25.3056C28.2434 25.8384 28.4552 26.4597 28.4931 27.1034C28.5309 27.7472 28.3933 28.3891 28.095 28.9607C27.7967 29.5324 27.3488 30.0123 26.7991 30.3494C26.2495 30.6865 25.6186 30.8681 24.9738 30.8748C24.329 30.8816 23.6945 30.7132 23.1379 30.3876C22.5814 30.062 22.1236 29.5915 21.8134 29.0261C21.5033 28.4608 21.3523 27.8219 21.3768 27.1776C21.4012 26.5332 21.6 25.9076 21.9521 25.3674L18.1236 18.9858C17.9167 19.0049 17.7083 19.0049 17.5014 18.9858L13.6729 25.3674C14.0233 25.905 14.2219 26.5273 14.2479 27.1685C14.2738 27.8097 14.1261 28.446 13.8202 29.0102C13.5144 29.5743 13.0619 30.0454 12.5105 30.3737C11.9591 30.7019 11.3292 30.8751 10.6875 30.875Z" fill="white"/>
</svg>
