<svg width="38" height="38" viewBox="0 0 38 38" fill="none" xmlns="http://www.w3.org/2000/svg">
<path d="M19 3.16669C10.4167 3.16669 3.16663 10.4168 3.16663 19C3.16663 27.5833 10.4167 34.8334 19 34.8334C27.5832 34.8334 34.8333 27.5833 34.8333 19C34.8333 10.4168 27.5832 3.16669 19 3.16669ZM19 11.0834C21.7344 11.0834 23.75 13.0974 23.75 15.8334C23.75 18.5694 21.7344 20.5834 19 20.5834C16.2671 20.5834 14.25 18.5694 14.25 15.8334C14.25 13.0974 16.2671 11.0834 19 11.0834ZM10.9155 26.5557C12.3357 24.4657 14.7044 23.0724 17.4166 23.0724H20.5833C23.2971 23.0724 25.6642 24.4657 27.0845 26.5557C25.061 28.7217 22.1904 30.0834 19 30.0834C15.8095 30.0834 12.939 28.7217 10.9155 26.5557Z" fill="white"/>
</svg>
