<svg width="58" height="58" viewBox="0 0 58 58" fill="none" xmlns="http://www.w3.org/2000/svg">
<rect width="58" height="58" rx="10" fill="#9462FF"/>
<path d="M40.5 33C41.0909 33 41.6761 33.1164 42.2221 33.3425C42.768 33.5687 43.2641 33.9002 43.682 34.318C44.0998 34.7359 44.4313 35.232 44.6575 35.7779C44.8836 36.3239 45 36.9091 45 37.5V39.31C45.0003 40.3911 44.7668 41.4595 44.3156 42.442C43.8645 43.4244 43.2062 44.2977 42.386 45.002C39.254 47.69 34.774 49 28.994 49C23.214 49 18.738 47.688 15.612 45C14.7929 44.2962 14.1355 43.4238 13.6847 42.4424C13.2339 41.4611 13.0003 40.3939 13 39.314V37.498C13.0005 36.3049 13.4749 35.1608 14.3187 34.3173C15.1626 33.4738 16.3069 33 17.5 33H40.5ZM28.79 9.016L28.994 9C29.3565 9.00002 29.7067 9.13129 29.9799 9.36953C30.253 9.60778 30.4307 9.93689 30.48 10.296L30.494 10.5V12H37.494C38.6875 12 39.8321 12.4741 40.676 13.318C41.5199 14.1619 41.994 15.3065 41.994 16.5V25.51C41.994 26.7035 41.5199 27.8481 40.676 28.692C39.8321 29.5359 38.6875 30.01 37.494 30.01H20.494C19.3005 30.01 18.1559 29.5359 17.312 28.692C16.4681 27.8481 15.994 26.7035 15.994 25.51V16.5C15.994 15.3065 16.4681 14.1619 17.312 13.318C18.1559 12.4741 19.3005 12 20.494 12H27.494V10.502C27.494 10.1395 27.6253 9.78932 27.8635 9.51614C28.1018 9.24296 28.4309 9.0653 28.79 9.016L28.994 9L28.79 9.014V9.016ZM24.494 18C23.831 18 23.1951 18.2634 22.7262 18.7322C22.2574 19.2011 21.994 19.837 21.994 20.5C21.994 21.163 22.2574 21.7989 22.7262 22.2678C23.1951 22.7366 23.831 23 24.494 23C25.157 23 25.7929 22.7366 26.2618 22.2678C26.7306 21.7989 26.994 21.163 26.994 20.5C26.994 19.837 26.7306 19.2011 26.2618 18.7322C25.7929 18.2634 25.157 18 24.494 18ZM33.48 18C33.1459 17.9905 32.8133 18.0482 32.5018 18.1695C32.1903 18.2909 31.9064 18.4734 31.6667 18.7064C31.427 18.9394 31.2365 19.2181 31.1064 19.526C30.9763 19.8339 30.9093 20.1647 30.9093 20.499C30.9093 20.8333 30.9763 21.1641 31.1064 21.472C31.2365 21.7799 31.427 22.0586 31.6667 22.2916C31.9064 22.5246 32.1903 22.7071 32.5018 22.8285C32.8133 22.9498 33.1459 23.0075 33.48 22.998C34.1305 22.9796 34.7483 22.7082 35.2019 22.2416C35.6555 21.7749 35.9093 21.1498 35.9093 20.499C35.9093 19.8482 35.6555 19.2231 35.2019 18.7564C34.7483 18.2898 34.1305 18.0184 33.48 18V18Z" fill="white"/>
</svg>
