<svg width="94" height="94" viewBox="0 0 94 94" fill="none" xmlns="http://www.w3.org/2000/svg">
<path d="M84.4421 9.77636C84.1738 9.48158 83.8486 9.24426 83.486 9.07873C83.1234 8.9132 82.731 8.82291 82.3326 8.8133C81.9341 8.80369 81.5378 8.87496 81.1677 9.02282C80.7975 9.17068 80.4612 9.39205 80.1791 9.67355L77.908 11.9336C77.6328 12.209 77.4781 12.5824 77.4781 12.9718C77.4781 13.3612 77.6328 13.7346 77.908 14.01L79.99 16.0883C80.1264 16.2254 80.2886 16.3342 80.4673 16.4085C80.6459 16.4827 80.8375 16.5209 81.0309 16.5209C81.2244 16.5209 81.4159 16.4827 81.5946 16.4085C81.7732 16.3342 81.9354 16.2254 82.0719 16.0883L84.2861 13.8852C85.406 12.7671 85.5106 10.9459 84.4421 9.77636Z" fill="#9462FF"/>
<path d="M73.3163 16.5235L40.174 49.6071C39.973 49.8072 39.827 50.0557 39.7499 50.3286L38.2169 54.8946C38.1801 55.0184 38.1775 55.15 38.2093 55.2752C38.2411 55.4004 38.3061 55.5148 38.3975 55.6062C38.4889 55.6975 38.6032 55.7626 38.7285 55.7943C38.8537 55.8261 38.9852 55.8235 39.1091 55.7868L43.6714 54.2538C43.9443 54.1767 44.1928 54.0307 44.393 53.8297L77.4765 20.6837C77.7826 20.3743 77.9543 19.9567 77.9543 19.5215C77.9543 19.0864 77.7826 18.6687 77.4765 18.3594L75.6498 16.5235C75.34 16.2146 74.9205 16.0411 74.483 16.0411C74.0456 16.0411 73.626 16.2146 73.3163 16.5235Z" fill="#9462FF"/>
<path d="M70.9296 35.5548L48.5514 57.9771C47.6865 58.8441 46.6234 59.4875 45.4541 59.8516L40.6991 61.4433C39.5706 61.762 38.3775 61.774 37.2428 61.4781C36.1081 61.1823 35.0729 60.5892 34.2437 59.76C33.4145 58.9308 32.8214 57.8955 32.5255 56.7609C32.2296 55.6262 32.2417 54.4331 32.5604 53.3046L34.1521 48.5495C34.5152 47.3806 35.1572 46.3176 36.0229 45.4523L58.4452 23.0704C58.6508 22.8651 58.7908 22.6034 58.8476 22.3186C58.9044 22.0337 58.8755 21.7383 58.7645 21.4699C58.6535 21.2014 58.4653 20.9719 58.2238 20.8104C57.9824 20.6489 57.6984 20.5626 57.4079 20.5625H19.0938C16.367 20.5625 13.7519 21.6457 11.8238 23.5738C9.8957 25.5019 8.8125 28.117 8.8125 30.8438V74.9062C8.8125 77.633 9.8957 80.2481 11.8238 82.1762C13.7519 84.1043 16.367 85.1875 19.0938 85.1875H63.1562C65.883 85.1875 68.4981 84.1043 70.4262 82.1762C72.3543 80.2481 73.4375 77.633 73.4375 74.9062V36.5921C73.4374 36.3016 73.3511 36.0176 73.1896 35.7762C73.0281 35.5347 72.7986 35.3466 72.5301 35.2355C72.2617 35.1245 71.9663 35.0955 71.6814 35.1524C71.3966 35.2092 71.1349 35.3492 70.9296 35.5548Z" fill="#9462FF"/>
</svg>
